<!DOCTYPE svg PUBLIC "-//W3C//DTD SVG 20010904//EN" "http://www.w3.org/TR/2001/REC-SVG-20010904/DTD/svg10.dtd">
<svg version="1.0" xmlns="http://www.w3.org/2000/svg" width="198px" height="198px" viewBox="0 0 1980 1980" preserveAspectRatio="xMidYMid meet">
<g id="layer101" fill="#6f6f6f" stroke="none">
 <path d="M0 990 l0 -990 990 0 990 0 0 990 0 990 -990 0 -990 0 0 -990z"/>
 </g>
<g id="layer102" fill="#969696" stroke="none">
 <path d="M0 990 l0 -990 990 0 990 0 0 990 0 990 -990 0 -990 0 0 -990z m1361 463 c25 -43 71 -122 102 -175 32 -54 82 -141 113 -194 31 -52 58 -103 61 -113 2 -10 -38 -90 -98 -192 -110 -189 -117 -200 -177 -304 l-40 -70 -332 0 -333 0 -109 190 c-60 105 -132 227 -159 273 -27 46 -49 88 -49 93 0 8 115 214 190 339 18 30 42 71 52 90 11 19 34 59 51 88 l32 52 325 0 325 0 46 -77z"/>
 <path d="M634 1427 c-22 -39 -91 -159 -152 -265 -62 -106 -112 -195 -112 -197 0 -3 143 -6 317 -7 l317 -3 128 -230 c71 -126 136 -245 144 -263 9 -17 19 -32 23 -32 4 0 57 87 118 193 60 105 130 225 154 266 l43 75 -25 42 c-13 23 -82 144 -154 268 l-130 226 -315 0 -315 0 -41 -73z"/>
 </g>
<g id="layer103" fill="#a29f9e" stroke="none">
 <path d="M0 990 l0 -990 990 0 990 0 0 990 0 990 -990 0 -990 0 0 -990z m1350 488 c17 -29 35 -60 40 -68 5 -8 41 -71 81 -140 39 -69 75 -129 79 -135 4 -5 23 -37 41 -70 17 -33 38 -69 45 -79 12 -17 10 -26 -13 -65 -15 -26 -36 -63 -48 -83 -11 -20 -66 -116 -122 -212 -57 -96 -103 -178 -103 -182 0 -4 -7 -16 -17 -26 -15 -17 -39 -18 -350 -18 l-333 0 -9 22 c-5 13 -77 140 -159 283 l-151 260 18 30 c10 17 51 86 90 155 40 69 77 132 82 140 5 8 16 29 25 45 8 17 22 42 32 57 9 14 32 51 50 82 l32 56 330 0 330 0 30 -52z"/>
 <path d="M657 1463 c-13 -21 -39 -66 -58 -100 -19 -34 -78 -137 -131 -230 l-98 -168 318 -3 317 -2 24 -43 c13 -23 34 -62 47 -87 13 -25 28 -52 34 -60 5 -8 49 -87 96 -175 94 -173 95 -175 100 -160 3 6 63 111 135 235 72 124 135 234 140 245 5 11 14 27 20 35 8 12 -11 52 -88 183 -54 92 -113 196 -132 230 -19 34 -45 79 -58 100 l-23 37 -310 0 -310 0 -23 -37z"/>
 </g>
<g id="layer104" fill="#a3a2a0" stroke="none">
 <path d="M0 990 l0 -990 990 0 990 0 0 990 0 990 -990 0 -990 0 0 -990z m1352 484 c18 -31 41 -68 50 -82 10 -15 22 -36 27 -48 5 -12 37 -68 72 -125 34 -57 75 -129 92 -159 17 -30 36 -64 43 -74 12 -17 10 -26 -13 -65 -15 -26 -36 -63 -48 -83 -11 -21 -66 -116 -122 -213 -57 -96 -103 -179 -103 -184 0 -4 -9 -16 -19 -25 -17 -15 -51 -17 -346 -17 -179 0 -331 3 -336 6 -5 4 -9 10 -9 16 0 5 -68 127 -152 271 -83 145 -151 268 -151 273 0 8 150 275 184 325 5 8 16 29 25 45 8 17 22 42 32 57 9 14 32 51 50 82 l32 56 330 0 330 0 32 -56z"/>
 <path d="M630 1413 c-28 -49 -55 -95 -60 -103 -5 -8 -52 -89 -104 -180 l-96 -165 318 -3 318 -2 17 -33 c9 -17 30 -54 45 -82 16 -27 43 -77 61 -110 81 -149 165 -300 169 -305 3 -3 6 0 8 5 2 6 54 96 115 200 61 105 124 214 140 244 16 30 34 60 40 68 9 10 -11 52 -87 184 -55 94 -114 198 -133 232 -19 34 -45 79 -58 100 l-23 37 -309 0 -310 0 -51 -87z m566 -88 c-1 -8 -6 -18 -11 -22 -4 -4 -5 -2 -1 5 4 7 2 12 -6 12 -9 0 -9 3 2 10 19 12 19 13 16 -5z m-525 -13 c-7 -2 -18 1 -23 6 -8 8 -4 9 13 5 13 -4 18 -8 10 -11z m169 4 c0 -3 -5 -8 -12 -12 -7 -4 -8 -3 -4 4 7 12 16 16 16 8z m145 -16 c3 -5 4 -10 1 -10 -3 0 -8 5 -11 10 -3 6 -4 10 -1 10 3 0 8 -4 11 -10z m164 -3 c8 -10 7 -14 -2 -14 -8 0 -14 6 -14 14 0 7 1 13 2 13 2 0 8 -6 14 -13z m-299 -1 c0 -3 -5 -8 -12 -12 -7 -4 -8 -3 -4 4 7 12 16 16 16 8z m267 -11 c0 -8 -4 -12 -8 -10 -10 7 -30 -21 -21 -30 4 -5 1 -5 -6 -1 -11 6 -8 13 9 32 27 28 26 28 26 9z m-460 -62 c-4 -3 -10 -3 -14 0 -3 4 0 7 7 7 7 0 10 -3 7 -7z m360 -30 c-4 -3 -7 0 -7 7 0 7 3 10 7 7 3 -4 3 -10 0 -14z m-282 -3 c3 -5 4 -10 1 -10 -3 0 -8 5 -11 10 -3 6 -4 10 -1 10 3 0 8 -4 11 -10z m125 7 c0 -2 -10 -12 -22 -23 l-23 -19 19 23 c18 21 26 27 26 19z m-50 -11 c0 -3 -5 -8 -12 -12 -7 -4 -8 -3 -4 4 7 12 16 16 16 8z m517 -3 c-4 -3 -10 -3 -14 0 -3 4 0 7 7 7 7 0 10 -3 7 -7z m-123 -42 c-2 -3 -9 0 -15 6 -6 6 -19 9 -28 6 -13 -4 -13 -3 -2 5 14 10 56 -6 45 -17z m116 19 c-12 -8 -12 -10 -1 -10 8 0 12 -3 8 -6 -9 -9 -28 6 -22 17 4 5 12 9 18 9 7 0 6 -4 -3 -10z m-643 -17 c-4 -3 -7 0 -7 7 0 7 3 10 7 7 3 -4 3 -10 0 -14z m347 9 c3 -5 -1 -9 -9 -9 -8 0 -12 4 -9 9 3 4 7 8 9 8 2 0 6 -4 9 -8z m-189 -32 c3 -5 4 -10 1 -10 -3 0 -8 5 -11 10 -3 6 -4 10 -1 10 3 0 8 -4 11 -10z m-110 -40 c3 -5 4 -10 1 -10 -3 0 -8 5 -11 10 -3 6 -4 10 -1 10 3 0 8 -4 11 -10z"/>
 </g>
<g id="layer105" fill="#a7a5a5" stroke="none">
 <path d="M0 990 l0 -990 990 0 990 0 0 990 0 990 -990 0 -990 0 0 -990z m1352 484 c18 -31 41 -68 50 -82 10 -15 22 -36 27 -47 5 -11 37 -67 71 -125 35 -58 76 -130 93 -160 17 -30 36 -64 43 -74 12 -17 10 -26 -13 -65 -15 -26 -36 -63 -48 -83 -11 -20 -61 -108 -112 -195 -50 -87 -98 -169 -105 -183 -38 -71 -4 -65 -366 -63 -180 1 -330 3 -333 3 -4 0 -15 17 -26 37 -10 21 -81 146 -158 278 -76 132 -138 245 -138 250 0 8 151 275 184 325 5 8 16 29 25 45 8 17 22 42 32 57 9 14 32 51 50 82 l32 56 330 0 330 0 32 -56z"/>
 <path d="M630 1413 c-28 -49 -55 -95 -60 -103 -5 -8 -52 -89 -104 -180 l-96 -165 318 -3 318 -2 17 -33 c9 -17 30 -54 45 -82 16 -27 43 -77 61 -110 81 -149 165 -300 169 -305 3 -3 6 0 8 5 2 6 54 96 115 200 61 105 124 214 140 244 16 30 34 60 40 68 9 10 -11 52 -87 184 -55 94 -114 198 -133 232 -19 34 -45 79 -58 100 l-23 37 -309 0 -310 0 -51 -87z m625 -73 c7 0 15 -6 18 -13 3 -9 -5 -12 -29 -9 -60 7 -92 -41 -74 -109 6 -21 17 -45 26 -54 8 -8 12 -15 7 -15 -5 0 -14 5 -21 12 -8 8 -12 9 -12 1 0 -18 -29 -9 -61 20 -17 15 -35 27 -40 27 -11 0 -11 7 0 29 7 13 6 18 -4 18 -7 0 -11 -6 -8 -14 4 -9 0 -11 -11 -7 -17 7 -20 -7 -16 -75 1 -24 -2 -32 -12 -29 -7 3 -12 13 -12 22 2 18 -4 20 -26 6 -24 -15 -31 11 -7 30 14 12 21 29 21 56 1 21 6 42 11 46 6 5 3 8 -7 8 -22 0 -29 13 -16 30 8 12 9 12 4 -2 -4 -14 0 -18 19 -18 15 0 25 -6 25 -15 0 -8 9 -19 19 -25 16 -8 25 -4 51 27 18 20 35 32 38 27 11 -14 40 -16 48 -3 4 7 3 9 -4 6 -13 -9 -42 2 -42 15 0 6 11 8 24 6 14 -3 31 -1 38 3 7 5 19 7 26 4 8 -3 20 -5 27 -5z m-430 -10 c8 -13 45 -13 45 0 0 6 20 10 45 10 25 0 45 -4 45 -10 0 -5 -15 -10 -34 -10 -19 0 -38 -5 -41 -10 -4 -6 -11 -8 -16 -5 -8 6 -14 -48 -11 -102 1 -25 -8 -29 -26 -11 -9 9 -17 9 -35 -1 -13 -7 -27 -11 -33 -10 -5 1 -28 1 -51 0 -36 -1 -40 -3 -36 -21 4 -15 0 -20 -13 -20 -16 0 -19 9 -21 60 -1 54 1 60 18 60 17 0 19 -5 14 -37 -4 -22 -3 -33 2 -26 4 6 38 13 74 14 l67 3 -3 44 c-1 25 -9 48 -16 53 -8 5 -39 8 -69 7 -46 -3 -55 -6 -52 -20 2 -12 -4 -18 -18 -18 -14 0 -20 6 -20 23 0 13 3 26 6 29 10 10 173 9 179 -2z m505 -20 c0 -5 -5 -10 -11 -10 -5 0 -7 5 -4 10 3 6 8 10 11 10 2 0 4 -4 4 -10z m1 -71 c1 -21 2 -51 3 -66 1 -29 1 -29 -62 -21 -8 1 -7 7 4 19 9 10 20 17 23 15 4 -3 6 20 4 49 -2 44 1 53 12 48 9 -3 15 -20 16 -44z m-498 -65 c4 -1 13 -2 20 -3 9 -1 9 -3 -1 -10 -7 -4 -14 -17 -15 -28 -2 -28 -20 -19 -34 17 -12 31 -7 44 11 32 6 -4 14 -7 19 -8z m44 -31 c-4 -3 -7 0 -7 7 0 7 3 10 7 7 3 -4 3 -10 0 -14z m68 8 c3 -5 1 -12 -4 -15 -5 -3 -11 1 -15 9 -6 16 9 21 19 6z m-38 -8 c-4 -3 -10 -3 -14 0 -3 4 0 7 7 7 7 0 10 -3 7 -7z m-243 -63 c3 0 2 8 -1 18 -5 14 -4 15 8 6 20 -16 80 -23 106 -13 13 5 25 4 28 -1 9 -14 -27 -28 -50 -20 -11 4 -27 4 -36 -1 -28 -14 -74 4 -76 32 -3 24 -3 24 7 2 5 -13 12 -23 14 -23z"/>
 <path d="M1104 1254 l-22 -23 22 -20 c31 -29 36 -27 33 18 -3 50 -7 52 -33 25z"/>
 <path d="M1083 1253 c4 -3 10 -3 14 0 3 4 0 7 -7 7 -7 0 -10 -3 -7 -7z"/>
 <path d="M1313 1153 c4 -3 10 -3 14 0 3 4 0 7 -7 7 -7 0 -10 -3 -7 -7z"/>
 </g>
<g id="layer106" fill="#c2bfbf" stroke="none">
 <path d="M0 990 l0 -990 990 0 990 0 0 990 0 990 -990 0 -990 0 0 -990z m1362 470 c22 -36 53 -87 68 -115 15 -27 51 -90 80 -140 29 -49 62 -106 72 -125 11 -19 31 -53 44 -75 l23 -40 -48 -85 c-26 -47 -89 -155 -138 -240 -50 -85 -102 -175 -116 -200 l-25 -45 -333 0 c-324 0 -334 1 -344 20 -5 11 -77 137 -159 279 -82 142 -149 264 -149 270 0 6 44 88 98 181 54 94 107 186 117 205 32 57 91 154 101 168 8 9 83 12 340 10 l330 -3 39 -65z"/>
 <path d="M639 1428 c-23 -40 -65 -113 -94 -163 -29 -49 -80 -137 -114 -195 l-61 -105 319 -3 318 -2 48 -88 c27 -48 56 -100 65 -117 135 -248 174 -315 180 -315 6 0 185 304 283 481 l25 45 -45 80 c-25 43 -74 127 -109 185 -35 59 -72 122 -82 140 -11 19 -31 54 -45 79 l-25 45 -310 3 -311 2 -42 -72z m175 -93 c26 -14 31 -14 46 0 19 17 82 20 112 4 14 -8 23 -8 31 0 19 19 27 12 27 -23 0 -18 7 -39 15 -46 14 -11 23 -7 59 29 38 37 51 44 95 47 29 2 61 -1 72 -7 15 -7 24 -7 34 1 27 22 35 0 35 -101 0 -84 -3 -101 -17 -106 -9 -4 -19 -1 -21 5 -2 8 -9 9 -22 2 -10 -5 -45 -9 -79 -7 -57 2 -63 5 -109 49 -27 26 -52 45 -56 41 -3 -3 -6 -44 -6 -90 0 -67 -3 -83 -15 -83 -11 0 -15 13 -15 54 l0 54 -31 -15 c-29 -14 -71 -14 -109 1 -11 5 -15 -1 -17 -20 -2 -46 -25 -59 -118 -63 l-85 -3 0 140 c0 103 3 142 13 145 28 12 133 6 161 -8z"/>
 <path d="M682 1268 l3 -53 45 -3 c49 -3 74 10 85 45 10 37 -25 63 -86 63 l-50 0 3 -52z"/>
 <path d="M879 1303 c-23 -26 -30 -87 -13 -111 8 -11 28 -23 45 -27 24 -6 36 -2 56 17 21 19 24 29 20 66 -6 52 -13 61 -58 68 -26 4 -38 1 -50 -13z"/>
 <path d="M1187 1302 c-24 -27 -22 -97 3 -122 46 -46 110 -8 110 66 0 33 -5 46 -22 58 -30 21 -71 20 -91 -2z"/>
 <path d="M1100 1245 c-10 -12 -10 -18 0 -30 17 -20 44 -20 36 1 -3 9 -6 22 -6 30 0 18 -14 18 -30 -1z"/>
 <path d="M815 1190 c3 -5 8 -10 11 -10 3 0 2 5 -1 10 -3 6 -8 10 -11 10 -3 0 -2 -4 1 -10z"/>
 <path d="M680 1135 l0 -45 41 0 c67 0 100 30 79 71 -9 15 -22 19 -65 19 l-55 0 0 -45z"/>
 </g>
<g id="layer107" fill="#e2e1df" stroke="none">
 <path d="M0 990 l0 -990 990 0 990 0 0 990 0 990 -990 0 -990 0 0 -990z m1417 378 c56 -95 131 -225 167 -289 l67 -116 -92 -159 c-51 -87 -125 -215 -164 -284 l-73 -125 -330 -3 -331 -2 -14 22 c-8 13 -83 142 -166 287 l-152 264 67 116 c36 64 111 194 167 289 l100 172 327 0 327 0 100 -172z"/>
 <path d="M677 1493 c-3 -5 -29 -51 -59 -103 -30 -52 -96 -166 -147 -253 -50 -87 -89 -163 -86 -168 4 -5 137 -9 315 -9 l308 0 143 -260 c79 -143 146 -260 149 -260 3 0 23 30 45 68 194 335 258 448 258 457 0 6 -69 128 -153 273 l-153 262 -308 0 c-169 0 -310 -3 -312 -7z m148 -155 c19 -9 28 -9 37 0 15 15 100 16 116 0 8 -8 15 -8 26 1 22 18 36 5 36 -34 0 -19 5 -37 11 -41 6 -3 32 14 57 38 43 41 52 45 100 47 30 1 60 -3 68 -10 11 -9 17 -9 29 1 27 23 35 0 35 -101 0 -84 -3 -101 -17 -106 -9 -4 -19 -1 -21 5 -2 8 -9 9 -22 2 -11 -6 -45 -9 -77 -8 -53 2 -62 6 -108 46 l-50 45 -5 -89 c-4 -74 -8 -89 -22 -92 -15 -3 -18 5 -18 52 0 52 -10 70 -25 46 -3 -5 -28 -10 -55 -10 -27 0 -52 5 -55 10 -11 17 -20 11 -21 -16 -3 -50 -29 -64 -121 -64 l-83 0 0 145 0 145 80 0 c43 0 91 -5 105 -12z"/>
 <path d="M882 1303 c-28 -25 -35 -87 -14 -112 27 -31 64 -36 95 -11 36 29 37 81 2 115 -28 29 -55 32 -83 8z"/>
 <path d="M1195 1295 c-48 -47 -23 -127 40 -127 60 0 86 73 44 126 -26 33 -53 33 -84 1z"/>
 <path d="M687 1304 c-4 -4 -7 -25 -7 -46 l0 -39 63 3 62 3 0 40 0 40 -55 3 c-31 2 -59 0 -63 -4z"/>
 <path d="M1110 1244 c-11 -12 -10 -18 3 -32 16 -15 17 -14 17 16 0 36 -2 38 -20 16z"/>
 <path d="M682 1143 l3 -38 55 0 c50 0 55 2 58 23 5 37 -15 52 -70 52 l-49 0 3 -37z"/>
 </g>
<g id="layer108" fill="#ffffff" stroke="none">
 <path d="M0 990 l0 -990 990 0 990 0 0 990 0 990 -990 0 -990 0 0 -990z m1347 505 c13 -22 26 -47 30 -55 3 -8 17 -32 30 -53 13 -21 33 -55 44 -75 12 -20 61 -107 111 -193 l89 -156 -19 -34 c-10 -19 -57 -99 -104 -179 -47 -80 -96 -165 -110 -190 -14 -25 -41 -72 -60 -105 l-34 -60 -331 -3 -331 -2 -21 29 c-12 16 -21 32 -21 36 0 5 -57 104 -125 217 -10 16 -17 29 -70 123 -15 28 -43 77 -62 109 l-34 59 69 121 c39 67 79 137 90 156 10 19 54 95 97 168 l78 132 331 -2 331 -3 22 -40z"/>
 <path d="M654 1453 c-15 -27 -39 -68 -53 -93 -26 -49 -41 -76 -74 -131 -114 -192 -147 -253 -140 -260 5 -5 148 -10 317 -11 l309 -3 27 -50 c15 -27 42 -77 60 -110 18 -33 51 -94 73 -135 22 -41 45 -82 51 -90 6 -8 24 -41 41 -72 16 -32 32 -58 36 -58 4 0 17 19 29 43 11 23 32 60 46 82 13 22 30 51 37 65 11 23 43 76 75 125 6 11 18 31 25 45 6 14 31 56 54 95 l42 70 -18 30 c-10 16 -40 68 -67 113 -27 46 -58 98 -68 115 -10 18 -31 52 -45 78 -14 25 -46 80 -70 122 l-45 77 -307 0 -307 0 -28 -47z m332 -115 c8 -5 14 -3 18 8 9 24 36 -1 36 -35 0 -50 18 -52 66 -7 34 33 53 43 80 44 19 1 39 4 45 8 5 3 21 -2 35 -11 19 -13 29 -14 39 -5 27 23 35 -1 35 -106 0 -97 -1 -104 -20 -104 -11 0 -20 4 -20 9 0 6 -17 3 -37 -5 -27 -12 -42 -13 -59 -6 -12 6 -30 8 -41 6 -12 -3 -35 10 -68 41 l-50 46 -5 -88 c-4 -71 -8 -88 -21 -91 -13 -2 -18 8 -24 46 l-6 48 -58 -4 c-37 -3 -61 0 -65 7 -12 19 -23 12 -19 -12 9 -49 -71 -83 -167 -70 l-40 6 0 143 0 144 79 0 c44 0 90 -4 103 -9 16 -6 32 -5 48 5 26 13 95 9 116 -8z"/>
 <path d="M690 1265 l0 -46 58 3 c55 3 57 4 60 33 5 38 -19 55 -75 55 l-43 0 0 -45z"/>
 <path d="M878 1298 c-23 -19 -30 -81 -12 -107 22 -31 86 -29 108 4 34 52 8 115 -48 115 -18 0 -39 -6 -48 -12z"/>
 <path d="M1184 1284 c-23 -34 -9 -93 25 -111 59 -29 115 54 77 112 -23 35 -79 35 -102 -1z"/>
 <path d="M1110 1244 c-11 -12 -10 -18 3 -32 16 -15 17 -14 17 16 0 36 -2 38 -20 16z"/>
 <path d="M687 1143 c-7 -38 2 -45 59 -41 47 3 49 4 49 33 0 29 -2 30 -51 33 -49 3 -52 2 -57 -25z"/>
 </g>

</svg>