<!DOCTYPE svg PUBLIC "-//W3C//DTD SVG 20010904//EN" "http://www.w3.org/TR/2001/REC-SVG-20010904/DTD/svg10.dtd">
<svg version="1.0" xmlns="http://www.w3.org/2000/svg" width="198px" height="198px" viewBox="0 0 1980 1980" preserveAspectRatio="xMidYMid meet">
<g id="layer101" fill="#000000" stroke="none">
 <path d="M0 990 l0 -990 990 0 990 0 0 990 0 990 -990 0 -990 0 0 -990z"/>
 </g>
<g id="layer102" fill="#413f40" stroke="none">
 <path d="M571 1382 c-47 -81 -120 -208 -164 -283 l-78 -137 89 -153 c49 -85 123 -212 164 -284 l74 -130 333 0 333 0 90 155 c49 85 100 173 112 195 13 22 46 80 75 129 l51 89 -26 46 c-15 25 -33 57 -40 71 -8 14 -69 120 -136 235 l-123 210 -335 2 -335 2 -84 -147z m808 -22 c43 -74 111 -191 151 -260 40 -69 73 -129 73 -135 0 -5 -52 -100 -115 -210 -176 -305 -182 -315 -188 -315 -5 0 -50 79 -201 355 l-87 160 -308 3 c-170 1 -312 6 -317 11 -4 4 33 80 84 167 51 87 117 202 147 254 30 52 56 98 59 103 2 4 144 6 315 5 l310 -3 77 -135z"/>
 <path d="M876 1345 c-23 -12 -36 -13 -56 -5 -15 6 -60 10 -101 8 l-74 -3 0 -140 0 -140 81 -3 c91 -3 110 6 121 60 4 21 9 26 16 19 14 -14 104 -14 112 -1 15 24 25 6 25 -46 0 -47 3 -55 18 -52 14 3 18 18 22 91 l5 87 50 -43 c45 -39 55 -43 108 -45 32 -1 67 2 77 8 14 7 20 7 20 0 0 -5 9 -10 20 -10 19 0 20 7 20 105 0 90 -3 107 -17 112 -9 4 -19 1 -21 -5 -3 -9 -11 -8 -32 3 -20 10 -43 13 -77 9 -41 -6 -54 -14 -89 -52 -45 -51 -64 -50 -64 4 0 23 -6 37 -17 41 -9 4 -18 2 -20 -4 -3 -8 -15 -7 -38 3 -43 18 -53 18 -89 -1z m97 -57 c38 -45 10 -118 -47 -118 -61 0 -83 41 -61 111 13 41 74 46 108 7z m-168 -23 l0 -40 -60 -3 -60 -3 3 46 4 46 57 -3 56 -3 0 -40z m479 23 c50 -71 -31 -162 -91 -102 -46 46 -20 124 42 124 24 0 39 -7 49 -22z m-154 -60 c0 -30 -1 -31 -17 -16 -13 14 -14 20 -3 32 18 22 20 20 20 -16z m-355 -58 c21 -8 26 -16 23 -38 -3 -26 -6 -27 -61 -30 l-58 -3 7 28 c3 15 7 34 10 41 4 15 43 16 79 2z"/>
 </g>
<g id="layer103" fill="#50504f" stroke="none">
 <path d="M612 1452 c-39 -71 -64 -114 -161 -279 -35 -59 -54 -93 -98 -172 l-25 -43 21 -29 c12 -15 21 -30 21 -32 0 -3 24 -44 53 -93 29 -49 67 -114 84 -144 29 -53 49 -89 95 -167 12 -21 28 -50 35 -65 8 -16 24 -30 36 -33 12 -3 163 -4 336 -3 l314 3 80 140 c44 77 88 154 98 170 10 17 25 44 34 60 8 17 19 37 25 45 5 8 28 46 50 83 l40 68 -25 44 c-14 25 -37 66 -52 93 -14 26 -45 79 -68 117 -24 39 -52 87 -64 108 -47 83 -59 104 -90 155 l-33 52 -331 0 -332 0 -43 -78z m749 -57 c34 -58 69 -119 78 -135 9 -16 39 -69 67 -117 28 -49 63 -109 78 -135 l28 -48 -21 -26 c-12 -15 -21 -31 -21 -37 0 -6 -6 -18 -14 -26 -7 -9 -27 -41 -43 -71 -17 -30 -56 -100 -88 -155 -32 -55 -72 -126 -89 -157 -17 -32 -33 -58 -36 -58 -3 0 -11 12 -17 28 -7 15 -27 54 -46 87 -18 33 -58 103 -87 155 -30 52 -66 118 -80 145 -15 28 -35 65 -46 82 l-19 33 -318 0 -318 0 30 53 c36 65 128 222 152 262 10 17 22 37 26 45 4 8 29 52 56 98 l49 82 308 0 308 0 63 -105z"/>
 <path d="M644 1337 c-2 -7 -3 -71 -2 -143 l3 -129 81 -3 c78 -3 83 -2 103 24 12 15 21 36 21 47 0 16 3 18 12 9 14 -14 104 -16 113 -2 15 24 25 6 25 -46 0 -47 3 -55 18 -52 14 3 18 18 22 91 l5 87 50 -43 c45 -39 55 -43 108 -45 32 -1 66 2 77 8 13 7 20 6 22 -2 2 -6 12 -9 21 -5 14 5 17 22 17 107 0 85 -3 102 -17 107 -9 4 -19 1 -21 -5 -2 -8 -9 -9 -22 -2 -11 6 -45 9 -76 8 -53 -2 -60 -5 -99 -47 -47 -49 -65 -48 -65 5 0 35 -25 58 -39 36 -4 -7 -12 -8 -21 -2 -21 14 -104 12 -118 -2 -9 -9 -18 -9 -37 0 -36 17 -174 16 -181 -1z m329 -49 c21 -25 22 -66 1 -96 -11 -16 -25 -22 -54 -22 -51 0 -71 28 -61 85 10 64 71 82 114 33z m302 7 c16 -15 25 -36 25 -55 0 -33 -37 -80 -63 -80 -8 0 -26 9 -41 21 -46 36 -32 111 24 132 25 9 30 8 55 -18z m-470 -30 l0 -40 -62 -3 -63 -3 0 46 0 46 63 -3 62 -3 0 -40z m325 -37 c0 -30 -1 -31 -17 -16 -13 14 -14 20 -3 32 18 22 20 20 20 -16z m-340 -62 c6 -8 10 -25 8 -38 -3 -21 -9 -23 -60 -26 l-58 -3 0 34 c0 18 3 37 7 40 12 13 90 7 103 -7z"/>
 </g>
<g id="layer104" fill="#62615f" stroke="none">
 <path d="M641 1503 c-12 -33 -68 -132 -86 -153 -7 -8 -25 -37 -39 -65 -15 -27 -38 -68 -51 -90 -13 -22 -29 -51 -35 -64 -6 -13 -19 -36 -29 -50 -11 -15 -31 -48 -45 -75 -25 -46 -25 -48 -8 -74 19 -29 22 -33 81 -137 23 -38 52 -88 65 -110 13 -22 55 -94 93 -160 l69 -120 44 -7 c25 -4 175 -7 333 -6 256 1 289 3 294 17 3 9 12 23 19 31 11 14 52 85 92 160 31 58 72 130 126 220 81 135 81 134 66 172 -7 18 -19 40 -26 48 -14 17 -67 110 -89 155 -8 17 -28 50 -45 75 -16 25 -30 49 -30 54 0 5 -6 17 -14 25 -7 9 -25 36 -38 61 -14 25 -35 62 -48 83 l-22 37 -333 0 -333 0 -11 -27z m669 -14 c0 -5 40 -76 88 -157 49 -81 105 -176 124 -212 19 -36 47 -86 62 -112 31 -53 32 -46 -38 -158 -46 -73 -61 -99 -106 -185 -18 -33 -36 -65 -41 -71 -5 -6 -20 -31 -33 -55 -40 -75 -61 -109 -66 -109 -3 0 -11 12 -18 28 -7 15 -25 50 -41 77 -35 60 -58 102 -98 175 -16 30 -43 78 -59 105 -17 28 -41 71 -54 98 l-24 47 -318 0 c-294 0 -342 4 -308 25 6 4 17 21 25 38 8 18 23 46 33 62 9 17 34 59 55 95 21 36 42 72 47 80 95 159 119 202 125 219 6 21 12 21 326 21 216 0 319 -3 319 -11z"/>
 <path d="M644 1337 c-2 -7 -3 -71 -2 -143 l3 -129 79 -3 c89 -3 116 10 116 60 0 30 9 35 27 17 12 -12 85 -8 115 5 15 7 17 0 20 -46 2 -39 7 -53 18 -53 12 0 16 19 20 90 l5 90 50 -46 c46 -42 54 -46 109 -47 32 -2 65 3 72 9 11 9 18 8 29 -1 28 -23 36 3 33 106 -3 85 -5 99 -20 102 -12 2 -18 -3 -18 -14 0 -16 -1 -16 -19 0 -14 13 -33 16 -72 15 -49 -3 -59 -7 -101 -47 -25 -24 -51 -41 -57 -38 -6 4 -11 23 -11 42 0 35 -25 58 -39 36 -4 -7 -12 -8 -21 -2 -21 13 -104 12 -117 -1 -9 -9 -20 -9 -44 0 -46 16 -168 15 -175 -2z m329 -45 c26 -23 22 -78 -8 -107 -31 -32 -59 -32 -90 -1 -24 24 -26 49 -9 104 10 32 72 35 107 4z m301 7 c35 -28 36 -80 1 -114 -29 -30 -45 -31 -79 -4 -46 36 -32 111 24 132 24 9 26 8 54 -14z m-466 -6 c5 -10 6 -29 3 -43 -6 -23 -12 -25 -69 -28 l-62 -3 0 46 0 45 60 0 c46 0 61 -4 68 -17z m322 -60 c0 -34 -1 -36 -16 -21 -13 13 -14 19 -2 37 7 11 14 21 15 21 2 0 3 -17 3 -37z m-340 -67 c6 -8 10 -25 8 -38 -3 -21 -9 -23 -60 -26 l-58 -3 0 41 0 40 49 0 c30 0 53 -5 61 -14z"/>
 </g>
<g id="layer105" fill="#6f6f6f" stroke="none">
 <path d="M621 1453 c-24 -43 -55 -92 -67 -110 -13 -17 -24 -34 -24 -38 0 -3 -26 -52 -59 -108 -32 -56 -70 -123 -83 -148 -14 -25 -31 -55 -38 -66 -11 -17 1 -44 107 -229 66 -115 139 -241 163 -280 l43 -72 59 -6 c33 -4 182 -6 330 -5 l269 2 14 31 c8 17 19 38 24 46 10 15 100 173 149 260 13 25 37 64 52 87 16 22 34 57 41 77 7 20 16 36 20 36 4 0 10 9 14 19 4 14 -42 102 -157 300 l-163 281 -325 0 -326 0 -43 -77z m687 37 c9 -11 33 -49 52 -83 19 -35 48 -86 64 -113 16 -27 53 -92 83 -144 30 -52 59 -102 64 -110 5 -8 16 -30 25 -49 16 -34 11 -57 -19 -96 -17 -22 -57 -86 -57 -91 0 -16 -215 -374 -223 -371 -5 1 -19 21 -31 42 -41 76 -120 220 -139 255 -11 19 -31 55 -45 80 -13 25 -38 69 -54 98 l-29 52 -315 0 c-179 0 -314 4 -314 9 0 5 17 38 38 72 76 128 91 157 84 164 -4 5 -2 5 5 1 6 -3 13 0 15 7 8 33 163 287 177 290 9 3 148 5 309 6 281 1 293 0 310 -19z"/>
 <path d="M644 1337 c-2 -7 -3 -71 -2 -143 l3 -129 74 -3 c93 -4 121 11 121 65 0 35 1 36 19 18 20 -17 84 -18 124 -1 15 7 17 2 17 -42 0 -51 15 -76 31 -51 5 8 9 49 9 92 0 42 3 77 7 77 4 0 26 -19 50 -42 38 -37 48 -42 100 -45 40 -3 64 1 78 10 17 13 21 13 31 -2 25 -32 35 2 32 105 -3 85 -5 99 -20 102 -12 2 -18 -3 -18 -14 0 -16 -1 -16 -19 0 -14 13 -33 16 -72 15 -49 -3 -59 -7 -101 -47 -25 -24 -51 -41 -57 -38 -6 4 -11 22 -11 41 0 37 -14 52 -33 37 -7 -5 -21 -6 -32 -1 -32 13 -90 10 -110 -5 -17 -12 -23 -12 -47 0 -35 18 -167 19 -174 1z m329 -45 c28 -25 19 -90 -15 -115 -55 -41 -115 7 -100 79 12 61 67 78 115 36z m307 6 c30 -33 27 -91 -6 -117 -15 -12 -32 -21 -39 -21 -7 0 -24 9 -39 21 -20 16 -26 29 -26 60 0 70 66 104 110 57z m-472 -1 c7 -8 8 -25 3 -43 -7 -28 -10 -29 -69 -32 l-62 -3 0 46 0 45 59 0 c36 0 63 -5 69 -13z m325 -71 l6 -40 -20 21 c-18 17 -19 24 -9 43 14 27 16 25 23 -24z m-308 -36 c3 -5 4 -10 1 -10 -3 0 -8 5 -11 10 -3 6 -4 10 -1 10 3 0 8 -4 11 -10z m-35 -24 c6 -8 10 -25 8 -38 -3 -21 -9 -23 -60 -26 l-58 -3 0 41 0 40 49 0 c30 0 53 -5 61 -14z"/>
 </g>
<g id="layer106" fill="#81807e" stroke="none">
 <path d="M644 1337 c-2 -7 -3 -71 -2 -143 l3 -129 74 -3 c91 -4 121 12 121 63 0 34 0 34 28 19 36 -18 82 -18 110 2 22 15 22 15 22 -40 0 -50 11 -78 24 -58 2 4 6 41 7 82 2 41 5 81 7 88 3 9 21 -3 52 -33 45 -44 53 -48 107 -51 40 -3 65 0 78 10 17 12 21 12 31 -3 25 -32 35 2 32 105 -3 85 -5 99 -20 102 -12 2 -18 -3 -18 -14 0 -16 -1 -16 -19 0 -14 13 -33 16 -72 15 -49 -3 -59 -7 -101 -48 -40 -37 -49 -42 -63 -31 -8 7 -15 28 -15 46 0 33 -12 45 -25 24 -4 -6 -15 -6 -31 0 -37 14 -87 12 -109 -4 -17 -12 -23 -12 -47 0 -35 18 -167 19 -174 1z m165 -41 c6 -7 7 -24 3 -42 -7 -25 -15 -30 -54 -38 -66 -13 -78 -5 -78 48 0 24 4 46 10 48 22 7 110 -5 119 -16z m161 2 c30 -33 27 -91 -6 -117 -35 -28 -59 -26 -90 4 -21 21 -24 31 -18 62 4 21 13 46 22 56 21 24 67 22 92 -5z m310 2 c31 -31 27 -93 -6 -119 -33 -26 -58 -27 -84 -1 -45 45 -14 140 45 140 14 0 34 -9 45 -20z m-144 -107 c-1 -1 -12 7 -26 17 -24 18 -24 18 -5 40 l20 22 6 -38 c4 -22 6 -40 5 -41z m-311 -3 c3 -5 4 -10 1 -10 -3 0 -8 5 -11 10 -3 6 -4 10 -1 10 3 0 8 -4 11 -10z m-27 -35 c10 -21 9 -28 -8 -45 -20 -20 -63 -26 -94 -14 -11 4 -16 19 -16 45 l0 39 53 0 c48 0 55 -3 65 -25z"/>
 </g>
<g id="layer107" fill="#979695" stroke="none">
 <path d="M645 1338 c-3 -8 -4 -72 -3 -144 l3 -129 83 0 c93 0 112 12 112 67 0 28 0 28 30 13 36 -19 67 -19 103 -1 l27 15 0 -55 c0 -41 4 -54 15 -54 12 0 15 17 15 90 0 50 3 90 7 90 4 0 26 -19 50 -42 25 -24 54 -43 70 -45 16 -2 43 -6 61 -9 21 -4 40 -1 55 9 21 14 24 13 33 -1 22 -34 34 -1 34 94 0 80 -3 96 -17 101 -9 4 -19 1 -21 -5 -2 -8 -11 -7 -27 4 -18 12 -37 14 -79 9 -48 -6 -61 -13 -92 -48 -42 -45 -66 -42 -72 9 -4 36 -19 53 -27 32 -6 -14 -10 -14 -33 -2 -35 18 -70 18 -106 -1 -22 -12 -32 -13 -43 -3 -8 6 -50 13 -93 16 -63 4 -81 2 -85 -10z m154 -34 c17 -13 21 -22 16 -43 -9 -37 -32 -51 -87 -51 l-48 0 0 48 c0 27 3 52 7 55 13 13 89 7 112 -9z m161 6 c25 -13 41 -65 30 -94 -22 -59 -74 -73 -116 -31 -21 21 -23 30 -18 67 4 24 14 48 23 55 19 15 56 16 81 3z m324 -12 c9 -12 16 -39 16 -60 0 -68 -60 -100 -110 -60 -29 23 -32 93 -5 122 25 28 79 27 99 -2z m-149 -106 c-3 -3 -15 4 -27 16 -21 21 -22 22 -2 43 l19 21 8 -38 c4 -20 5 -39 2 -42z m-310 -2 c3 -5 1 -10 -4 -10 -6 0 -11 5 -11 10 0 6 2 10 4 10 3 0 8 -4 11 -10z m-23 -35 c18 -39 -12 -65 -74 -65 l-48 0 0 45 0 45 55 0 c49 0 57 -3 67 -25z"/>
 </g>
<g id="layer108" fill="#a4a2a1" stroke="none">
 <path d="M867 1334 c-21 -11 -32 -12 -42 -4 -8 6 -46 10 -97 8 l-83 -3 -3 -124 c-2 -76 1 -128 8 -136 7 -8 29 -12 63 -10 29 2 62 4 74 4 30 1 53 27 53 61 l0 29 45 -17 c41 -15 47 -15 79 1 l35 16 3 -51 c2 -29 8 -53 15 -55 9 -3 13 22 15 91 l3 95 55 -49 c30 -28 62 -49 70 -48 8 1 30 -2 47 -6 23 -5 42 -3 63 7 16 9 30 11 30 6 0 -11 29 -12 31 -1 1 4 3 46 5 94 3 85 -6 112 -28 90 -7 -7 -19 -5 -36 4 -19 10 -43 12 -77 7 -42 -5 -55 -13 -91 -52 -40 -43 -42 -44 -59 -27 -10 10 -18 31 -17 47 1 29 -22 42 -30 17 -3 -8 -11 -7 -28 5 -30 21 -66 21 -103 1z m-63 -30 c21 -20 17 -73 -6 -85 -9 -5 -39 -9 -67 -9 l-51 0 0 55 0 55 54 0 c36 0 60 -5 70 -16z m171 -4 c27 -29 24 -99 -5 -122 -30 -24 -75 -23 -101 3 -18 18 -20 28 -14 67 3 26 14 53 23 60 24 19 76 15 97 -8z m311 -1 c27 -30 24 -97 -6 -121 -50 -41 -112 -9 -114 59 -1 52 25 83 69 83 20 0 39 -8 51 -21z m-149 -69 c2 -45 -5 -49 -32 -20 -17 19 -17 21 0 40 26 28 31 25 32 -20z m-307 -46 c0 -8 -4 -12 -10 -9 -5 3 -10 10 -10 16 0 5 5 9 10 9 6 0 10 -7 10 -16z m-26 -26 c7 -12 6 -24 -4 -42 -12 -23 -20 -26 -67 -26 l-53 0 0 45 0 46 56 -3 c40 -2 60 -8 68 -20z"/>
 </g>

</svg>